<?xml version="1.0" standalone="no"?><svg xmlns="http://www.w3.org/2000/svg" viewBox="0 0 1440 320"><path fill="#5000ca" fill-opacity="1" d="M0,64L9.6,80C19.2,96,38,128,58,160C76.8,192,96,224,115,218.7C134.4,213,154,171,173,138.7C192,107,211,85,230,69.3C249.6,53,269,43,288,64C307.2,85,326,139,346,165.3C364.8,192,384,192,403,160C422.4,128,442,64,461,53.3C480,43,499,85,518,112C537.6,139,557,149,576,154.7C595.2,160,614,160,634,176C652.8,192,672,224,691,197.3C710.4,171,730,85,749,74.7C768,64,787,128,806,170.7C825.6,213,845,235,864,218.7C883.2,203,902,149,922,128C940.8,107,960,117,979,138.7C998.4,160,1018,192,1037,192C1056,192,1075,160,1094,170.7C1113.6,181,1133,235,1152,245.3C1171.2,256,1190,224,1210,213.3C1228.8,203,1248,213,1267,197.3C1286.4,181,1306,139,1325,138.7C1344,139,1363,181,1382,218.7C1401.6,256,1421,288,1430,304L1440,320L1440,320L1430.4,320C1420.8,320,1402,320,1382,320C1363.2,320,1344,320,1325,320C1305.6,320,1286,320,1267,320C1248,320,1229,320,1210,320C1190.4,320,1171,320,1152,320C1132.8,320,1114,320,1094,320C1075.2,320,1056,320,1037,320C1017.6,320,998,320,979,320C960,320,941,320,922,320C902.4,320,883,320,864,320C844.8,320,826,320,806,320C787.2,320,768,320,749,320C729.6,320,710,320,691,320C672,320,653,320,634,320C614.4,320,595,320,576,320C556.8,320,538,320,518,320C499.2,320,480,320,461,320C441.6,320,422,320,403,320C384,320,365,320,346,320C326.4,320,307,320,288,320C268.8,320,250,320,230,320C211.2,320,192,320,173,320C153.6,320,134,320,115,320C96,320,77,320,58,320C38.4,320,19,320,10,320L0,320Z"></path></svg>