<?xml version="1.0" standalone="no"?><svg xmlns="http://www.w3.org/2000/svg" viewBox="0 0 1440 320"><path fill="#0099ff" fill-opacity="1" d="M0,224L11.4,213.3C22.9,203,46,181,69,160C91.4,139,114,117,137,101.3C160,85,183,75,206,112C228.6,149,251,235,274,277.3C297.1,320,320,320,343,304C365.7,288,389,256,411,245.3C434.3,235,457,245,480,208C502.9,171,526,85,549,90.7C571.4,96,594,192,617,224C640,256,663,224,686,213.3C708.6,203,731,213,754,208C777.1,203,800,181,823,170.7C845.7,160,869,160,891,181.3C914.3,203,937,245,960,218.7C982.9,192,1006,96,1029,101.3C1051.4,107,1074,213,1097,218.7C1120,224,1143,128,1166,106.7C1188.6,85,1211,139,1234,181.3C1257.1,224,1280,256,1303,229.3C1325.7,203,1349,117,1371,106.7C1394.3,96,1417,160,1429,192L1440,224L1440,0L1428.6,0C1417.1,0,1394,0,1371,0C1348.6,0,1326,0,1303,0C1280,0,1257,0,1234,0C1211.4,0,1189,0,1166,0C1142.9,0,1120,0,1097,0C1074.3,0,1051,0,1029,0C1005.7,0,983,0,960,0C937.1,0,914,0,891,0C868.6,0,846,0,823,0C800,0,777,0,754,0C731.4,0,709,0,686,0C662.9,0,640,0,617,0C594.3,0,571,0,549,0C525.7,0,503,0,480,0C457.1,0,434,0,411,0C388.6,0,366,0,343,0C320,0,297,0,274,0C251.4,0,229,0,206,0C182.9,0,160,0,137,0C114.3,0,91,0,69,0C45.7,0,23,0,11,0L0,0Z"></path></svg>